<svg width="979" height="321" viewBox="0 0 979 321" fill="none" xmlns="http://www.w3.org/2000/svg">
<path d="M-421.316 318.298L-422.418 313.504L-406.286 303.738L-370.039 228.175L-435.674 168.289L-452.951 164.325L-454.053 159.531L-396.244 150.353L-395.142 155.147L-412.787 164.904L-412.511 166.103L-360.087 213.428L-331.44 152.983L-331.661 152.024L-351.421 148.205L-352.523 143.412L-303.945 135.699L-302.842 140.493L-316.226 149.077L-351.191 221.456L-282.277 283.553L-262.594 288.129L-261.492 292.923L-320.515 302.294L-321.617 297.5L-305.132 288.175L-305.352 287.217L-361.441 236.001L-391.391 300.628L-391.171 301.587L-370.196 305.213L-369.094 310.007L-421.316 318.298ZM-166.334 280.3C-177.669 282.099 -188.653 281.773 -199.288 279.321C-209.797 276.683 -219.441 272.335 -228.219 266.276C-236.873 260.031 -244.363 252.277 -250.689 243.013C-256.854 233.723 -261.296 223.166 -264.015 211.342C-266.735 199.518 -267.291 188.344 -265.683 177.82C-263.913 167.27 -260.373 157.848 -255.064 149.552C-249.63 141.071 -242.595 134.074 -233.96 128.563C-225.199 122.866 -215.152 119.118 -203.817 117.318C-192.482 115.518 -181.559 115.937 -171.05 118.575C-160.416 121.027 -150.691 125.363 -141.876 131.582C-133.097 137.641 -125.625 145.315 -119.461 154.605C-113.134 163.869 -108.611 174.413 -105.892 186.237C-103.172 198.061 -102.698 209.248 -104.468 219.798C-106.075 230.321 -109.597 239.824 -115.031 248.305C-120.502 256.627 -127.618 263.636 -136.378 269.333C-145.013 274.844 -154.999 278.5 -166.334 280.3ZM-163.548 269.423C-152.861 267.726 -144.075 263.599 -137.191 257.04C-130.308 250.482 -125.701 242.049 -123.372 231.742C-121.043 221.435 -121.367 209.811 -124.343 196.868C-128.018 180.889 -134.049 167.438 -142.436 156.513C-150.823 145.589 -160.546 137.61 -171.607 132.575C-182.667 127.541 -194.027 125.949 -205.686 127.8C-216.373 129.497 -225.24 133.638 -232.285 140.222C-239.368 146.646 -244.155 155.024 -246.646 165.357C-248.975 175.664 -248.651 187.289 -245.674 200.232C-242 216.21 -235.95 229.742 -227.527 240.826C-219.14 251.75 -209.416 259.729 -198.356 264.764C-187.133 269.772 -175.531 271.326 -163.548 269.423ZM8.24526 250.098L-54.9071 260.125L-56.0095 255.331L-38.4746 245.094L-69.343 110.874L-90.1852 106.73L-91.2877 101.936L24.3296 83.5804L34.5824 128.161L30.2103 128.855L8.70336 97.7375L-50.5627 107.147L-37.8846 162.273L-12.8665 158.301C7.53653 155.062 24.4052 156.524 37.7396 162.688C51.1992 168.667 59.4356 178.207 62.4489 191.309C64.5803 200.577 63.9004 209.297 60.4091 217.47C56.881 225.483 50.6742 232.431 41.7887 238.313C33.0285 244.01 21.8473 247.939 8.24526 250.098ZM-11.7332 169.797L-35.2938 173.538L-19.3635 242.805L5.65451 238.833C20.8758 236.417 31.3949 231.434 37.2118 223.886C43.1539 216.152 44.9674 207.252 42.6522 197.185C39.8594 185.042 34.1139 176.845 25.4157 172.594C16.6808 168.185 4.29782 167.252 -11.7332 169.797ZM164.798 225.243L101.645 235.269L100.543 230.476L118.078 220.239L87.2095 86.0188L66.3672 81.8749L65.2648 77.0813L180.882 58.7252L191.135 103.305L186.763 104L165.256 72.8824L105.99 82.2918L118.668 137.418L143.686 133.446C164.089 130.207 180.958 131.669 194.292 137.833C207.752 143.811 215.988 153.352 219.001 166.454C221.133 175.722 220.453 184.442 216.962 192.615C213.433 200.628 207.227 207.576 198.341 213.458C189.581 219.155 178.4 223.083 164.798 225.243ZM144.819 144.942L121.259 148.683L137.189 217.95L162.207 213.978C177.428 211.561 187.947 206.579 193.764 199.031C199.706 191.297 201.52 182.397 199.205 172.33C196.412 160.186 190.666 151.989 181.968 147.739C173.233 143.329 160.85 142.397 144.819 144.942ZM258.198 210.414L257.095 205.621L274.63 195.384L243.762 61.1636L222.92 57.0197L221.817 52.2261L279.869 43.0095L280.971 47.8031L262.708 58.1557L287.954 167.929L353.734 54.3863L351.364 44.0801L329.793 40.0519L328.69 35.2583L386.742 26.0417L387.844 30.8353L370.31 41.0722L401.178 175.292L422.02 179.436L423.123 184.23L365.071 193.446L363.969 188.653L382.232 178.3L357.262 69.7257L291.481 183.268L293.576 192.376L315.147 196.404L316.249 201.198L258.198 210.414ZM507.551 170.825L506.448 166.032L519.644 157.726L547.406 -0.708355L555.907 -2.05807L651.723 136.508L668.458 140.31L669.561 145.104L612.967 154.089L611.864 149.295L631.32 139.747L601.625 96.018L541.631 105.543L533.732 155.489L555.999 158.165L557.101 162.959L507.551 170.825ZM543.655 93.5454L594.42 85.4857L554.474 26.739L543.655 93.5454ZM693.461 141.309L692.359 136.516L710.137 126.24L679.268 -7.97985L658.183 -12.0852L657.081 -16.8787L714.161 -25.9411C733.268 -28.9747 749.361 -27.9688 762.438 -22.9233C775.677 -17.9036 784.005 -7.96365 787.423 6.89644C789.444 15.6847 788.33 23.9769 784.08 31.7732C779.794 39.4098 772.929 46.048 763.484 51.688C754.201 57.3023 743.002 61.1507 729.886 63.2331L715.798 65.4698L729.082 123.232L752.596 126.952L753.699 131.746L693.461 141.309ZM698.048 -11.7068L713.207 54.2049L732.881 51.0812C745.674 49.0503 755.196 44.4746 761.446 37.3542C767.661 30.074 769.665 21.6403 767.461 12.0532C764.741 0.229017 758.889 -7.70252 749.904 -11.7414C741.08 -15.8061 729.787 -16.7457 716.023 -14.5605L698.048 -11.7068ZM874.242 112.607L873.14 107.814L895.776 96.7672L864.742 -38.172L821.992 -31.3849L816.25 6.04602L811.878 6.74015L801.185 -39.7575L942.063 -62.1242L952.757 -15.6265L948.385 -14.9323L926.437 -47.967L883.687 -41.1799L914.721 93.7593L940.664 97.0933L941.767 101.887L874.242 112.607Z" fill="#5E5C5A" fill-opacity="0.03"/>
</svg>
