<svg width="1429" height="211" viewBox="0 0 1429 211" fill="none" xmlns="http://www.w3.org/2000/svg">
<path d="M13.7376 244.985L13.3357 240.083L30.6774 231.96L77.3302 160.122L21.0604 93.6186L4.55744 87.904L4.15546 83.0017L62.5946 79.6937L62.9966 84.5959L44.1615 92.5571L44.262 93.7827L89.2787 146.395L126.253 88.8952L126.173 87.9147L107.194 82.094L106.792 77.1918L155.901 74.4119L156.303 79.3142L141.847 86.535L96.9176 155.32L156.11 224.367L174.903 230.937L175.305 235.839L115.638 239.217L115.236 234.314L132.863 226.668L132.783 225.687L84.7035 168.816L45.8408 230.363L45.9212 231.343L66.1273 237.094L66.5293 241.996L13.7376 244.985ZM271.145 232.876C259.686 233.525 248.878 232.085 238.722 228.555C228.715 224.854 219.809 219.53 212.004 212.584C204.348 205.466 198.059 196.957 193.136 187.057C188.377 177.148 185.501 166.147 184.51 154.055C183.518 141.963 184.571 130.74 187.669 120.386C190.931 110.023 195.779 100.966 202.215 93.214C208.802 85.2895 216.756 79.0113 226.079 74.3793C235.553 69.5748 246.019 66.8481 257.477 66.1995C268.936 65.5509 279.668 67.0775 289.675 70.7794C299.832 74.3087 308.819 79.6278 316.638 86.7369C324.444 93.6826 330.726 102.11 335.486 112.019C340.409 121.919 343.366 132.915 344.358 145.007C345.349 157.099 344.214 168.327 340.953 178.69C337.855 189.043 333.013 198.182 326.426 206.107C319.827 213.868 311.79 220.151 302.317 224.956C292.994 229.587 282.603 232.228 271.145 232.876ZM275.457 222.29C286.261 221.678 295.534 218.444 303.276 212.589C311.019 206.733 316.78 198.773 320.56 188.709C324.339 178.645 325.686 166.995 324.601 153.759C323.261 137.418 319.23 123.364 312.51 111.596C305.789 99.8278 297.325 90.8673 287.117 84.7143C276.91 78.5612 265.913 75.8183 254.127 76.4854C243.323 77.097 233.968 80.3353 226.062 86.2004C218.142 91.902 212.211 99.7895 208.268 109.863C204.488 119.927 203.141 131.577 204.226 144.813C205.566 161.154 209.603 175.29 216.338 187.221C223.059 198.989 231.523 207.95 241.73 214.103C252.101 220.246 263.343 222.975 275.457 222.29ZM447.984 220.404L384.143 224.017L383.741 219.115L402.535 210.664L391.28 73.4004L371.279 67.1451L370.877 62.2428L487.756 55.6267L491.494 101.218L487.074 101.468L470.284 68.1895L410.372 71.5809L414.995 127.957L440.286 126.525C460.911 125.358 477.37 128.53 489.663 136.043C502.105 143.383 508.876 153.752 509.975 167.152C510.752 176.63 508.829 185.275 504.208 193.088C499.572 200.738 492.443 207.052 482.819 212.029C473.346 216.834 461.734 219.625 447.984 220.404ZM439.757 138.129L415.939 139.477L421.748 210.315L447.039 208.883C462.426 208.012 473.535 204.1 480.365 197.147C487.346 190.021 490.414 181.31 489.57 171.016C488.552 158.597 484.05 149.822 476.064 144.693C468.065 139.4 455.963 137.212 439.757 138.129ZM606.244 211.445L542.402 215.059L542 210.157L560.795 201.705L549.54 64.4419L529.539 58.1865L529.137 53.2842L646.015 46.6682L649.754 92.2592L645.334 92.5094L628.544 59.2309L568.632 62.6224L573.255 118.998L598.546 117.567C619.171 116.399 635.63 119.572 647.922 127.084C660.365 134.424 667.136 144.794 668.234 158.193C669.012 167.671 667.089 176.316 662.467 184.13C657.832 191.78 650.703 198.093 641.079 203.071C631.606 207.875 619.994 210.667 606.244 211.445ZM598.017 129.17L574.199 130.519L580.008 201.356L605.299 199.925C620.686 199.054 631.795 195.142 638.625 188.188C645.606 181.062 648.674 172.352 647.83 162.057C646.812 149.638 642.31 140.864 634.324 135.734C626.325 130.441 614.223 128.253 598.017 129.17ZM700.662 206.1L700.26 201.198L719.055 192.747L707.8 55.4833L687.799 49.2279L687.397 44.3257L746.082 41.0037L746.484 45.906L726.952 54.3991L736.158 166.661L817.44 59.8657L816.575 49.3259L795.838 43.1122L795.436 38.21L854.121 34.888L854.522 39.7903L835.728 48.2417L846.983 185.505L866.984 191.76L867.386 196.663L808.701 199.985L808.299 195.082L827.831 186.589L818.726 75.553L737.444 182.348L738.208 191.662L758.945 197.876L759.347 202.778L700.662 206.1ZM952.735 191.831L952.333 186.929L966.563 179.967L1016.72 24.4528L1025.31 23.9664L1100.12 172.161L1116.11 177.658L1116.51 182.56L1059.3 185.799L1058.9 180.897L1079.49 173.328L1056.42 126.616L995.772 130.049L980.804 179.161L1002.42 184.094L1002.83 188.996L952.735 191.831ZM999.493 118.264L1050.81 115.359L1019.76 52.5991L999.493 118.264ZM1140.67 181.193L1140.27 176.291L1159.31 167.825L1148.06 30.5619L1127.81 24.3204L1127.41 19.4182L1185.11 16.1518C1204.43 15.0584 1220.18 17.696 1232.38 24.0647C1244.74 30.4241 1251.55 41.2023 1252.79 56.3993C1253.53 65.3868 1251.24 73.5606 1245.92 80.9208C1240.59 88.1175 1232.86 94.055 1222.72 98.7333C1212.74 103.402 1201.12 106.112 1187.86 106.863L1173.62 107.669L1178.46 166.741L1201.17 172.843L1201.57 177.746L1140.67 181.193ZM1167.15 28.7424L1172.68 96.1485L1192.56 95.0226C1205.5 94.2906 1215.56 90.6837 1222.76 84.2021C1229.94 77.5571 1233.13 69.3323 1232.33 59.5278C1231.34 47.4355 1226.69 38.9155 1218.39 33.9678C1210.26 29.0109 1199.23 26.9262 1185.32 27.7138L1167.15 28.7424ZM1323.43 170.848L1323.02 165.945L1346.97 157.202L1335.66 19.2035L1292.44 21.6498L1281.4 58.4737L1276.98 58.7239L1273.08 11.1719L1415.5 3.1103L1419.4 50.6622L1414.98 50.9124L1398.03 15.6731L1354.81 18.1194L1366.13 156.118L1391.28 162.081L1391.69 166.984L1323.43 170.848Z" fill="#5E5C5A" fill-opacity="0.03"/>
</svg>
